<?xml version="1.0" standalone="no"?>
<!DOCTYPE svg PUBLIC "-//W3C//DTD SVG 1.1//EN" "http://www.w3.org/Graphics/SVG/1.1/DTD/svg11.dtd" >
<svg xmlns="http://www.w3.org/2000/svg">
<metadata></metadata>
<defs>
<font id="cherry_swashbold" horiz-adv-x="1187" >
<font-face units-per-em="2048" ascent="1638" descent="-410" />
<missing-glyph horiz-adv-x="634" />
<glyph horiz-adv-x="2048" />
<glyph horiz-adv-x="2048" />
<glyph unicode="&#xd;" horiz-adv-x="681" />
<glyph unicode=" "  horiz-adv-x="634" />
<glyph unicode="&#x09;" horiz-adv-x="634" />
<glyph unicode="&#xa0;" horiz-adv-x="634" />
<glyph unicode="!" horiz-adv-x="737" d="M221 1640h307l-41 -1228h-225zM223 130.5q0 62.5 44 106.5t106.5 44t106.5 -44t44 -106.5t-44 -106.5t-106.5 -44t-106.5 44t-44 106.5z" />
<glyph unicode="&#x22;" horiz-adv-x="921" d="M123 1434h276l-30 -467h-217zM522 1434h277l-31 -467h-217z" />
<glyph unicode="#" horiz-adv-x="1404" d="M123 328l43 200h196q8 47 22.5 123t21.5 117h-238l43 201h229l58 321h207l-58 -321h225l58 321h207l-58 -321h203l-25 -201h-213q-8 -47 -22 -123t-21 -117h236l-25 -200h-245l-49 -287h-207l49 287h-225l-50 -287h-206l49 287h-205zM569 528h226q8 47 22 123t21 117 h-226z" />
<glyph unicode="$" horiz-adv-x="1157" d="M74 129v369h235v-187q106 -41 234.5 -41t210.5 47.5t82 112.5q0 55 -66 94q-45 29 -121 63t-103.5 47t-91 43t-92 46t-81 46t-78 55.5t-56.5 62.5q-55 66 -55 170q0 137 99.5 229t267.5 123v166h235v-150q229 -16 355 -82v-366h-236v180q-63 25 -186 25t-197 -34t-74 -95 q0 -45 58 -78q43 -25 73.5 -38t53 -23.5t61.5 -26.5q291 -123 396.5 -229.5t105.5 -258t-109.5 -246t-300.5 -120.5v-158h-235v152q-225 14 -385 102z" />
<glyph unicode="%" horiz-adv-x="1832" d="M37 1064q0 159 96 264.5t266 105.5t266.5 -105.5t96.5 -264.5t-96.5 -263.5t-266.5 -104.5t-266 104.5t-96 263.5zM285 1064q0 -60 30.5 -99t84 -39t83 39t29.5 100t-29.5 99t-83 38t-84 -39t-30.5 -99zM510 -45l557 1481h236l-558 -1481h-235zM1065 359.5 q0 158.5 96 264t266 105.5t266.5 -105.5t96.5 -264t-96.5 -263t-266.5 -104.5t-266 104.5t-96 263zM1313 359.5q0 -60.5 30.5 -99.5t84 -39t83 39t29.5 100.5t-29.5 99.5t-83 38t-84 -39t-30.5 -99.5z" />
<glyph unicode="&#x26;" horiz-adv-x="1486" d="M33 375q0 221 272 436q-121 172 -121 322.5t91.5 248t275.5 97.5t282.5 -87t98.5 -214t-68.5 -215.5t-222.5 -200.5q147 -186 293 -330q63 82 110 195h-92v211h461v-211h-113q-55 -201 -186 -363q164 -137 299 -203l-133 -204q-162 90 -340 243q-182 -125 -406.5 -125 t-362.5 101.5t-138 298.5zM309 375q0 -74 61.5 -113t172 -39t209.5 51q-176 176 -301 344q-141 -123 -142 -243zM449 1139q0 -102 55 -185q86 45 124 98.5t38 96.5t-30 67.5t-77 24.5t-78.5 -31.5t-31.5 -70.5z" />
<glyph unicode="'" horiz-adv-x="522" d="M123 1434h276l-30 -467h-217z" />
<glyph unicode="(" horiz-adv-x="673" d="M123 608.5q0 184.5 37 357.5t96 304q102 225 211 358l180 -127q-53 -74 -104 -169t-106.5 -299t-55.5 -424t55.5 -424.5t106.5 -300t104 -169.5l-180 -127q-109 133 -189.5 311.5t-117.5 351.5t-37 357.5z" />
<glyph unicode=")" horiz-adv-x="677" d="M31 -285q53 74 104 169.5t106.5 300t55.5 424.5t-55.5 424t-106.5 299t-104 169l180 127q109 -133 189.5 -311t117.5 -351t37 -357.5t-37 -357.5t-96 -304q-102 -225 -211 -359z" />
<glyph unicode="*" horiz-adv-x="907" d="M100 1100l82 260l174 -98l-41 192h277l-39 -192q139 74 170 92l90 -260l-205 -23q23 -20 72 -67.5t70 -65.5l-211 -162l-88 182q-16 -35 -45 -96t-39 -82l-220 156l146 139q-154 18 -193 25z" />
<glyph unicode="+" horiz-adv-x="1126" d="M123 473v240h317v319h246v-319h318v-240h-318v-321h-246v321h-317z" />
<glyph unicode="," horiz-adv-x="581" d="M143 -279q100 125 111 236q-49 18 -75.5 63.5t-26.5 95.5t43 90t107.5 40t109.5 -42t45 -125t-56.5 -212t-140.5 -217z" />
<glyph unicode="-" horiz-adv-x="880" d="M123 473v240h635v-240h-635z" />
<glyph unicode="." horiz-adv-x="563" d="M143 130.5q0 62.5 44 106.5t106.5 44t106.5 -44t44 -106.5t-44 -106.5t-106.5 -44t-106.5 44t-44 106.5z" />
<glyph unicode="/" horiz-adv-x="860" d="M20 -61l594 1495h226l-594 -1495h-226z" />
<glyph unicode="0" horiz-adv-x="1228" d="M49 573q0 258 150.5 426t415 168t415 -168t150.5 -426t-150.5 -425.5t-415 -167.5t-415 167.5t-150.5 425.5zM326 573.5q0 -151.5 78.5 -250t211 -98.5t210 98.5t77.5 250t-79 250t-211 98.5t-209.5 -98.5t-77.5 -250z" />
<glyph unicode="1" horiz-adv-x="997" d="M90 973l545 194v-921h260v-246h-782v246h256v585l-226 -47z" />
<glyph unicode="2" horiz-adv-x="1148" d="M96 696v367q158 84 406 84q510 0 510 -371q0 -141 -122 -288.5t-317 -274.5l5 -6l241 29l4 71h236l-19 -307h-929v205q123 61 246.5 138t177 121t104.5 95q109 104 109 215q0 127 -240 127q-96 0 -176 -35v-170h-236z" />
<glyph unicode="3" horiz-adv-x="1130" d="M35 -285l98 228q162 -66 323.5 -66t246.5 46t85 152.5t-85 156t-214 49.5h-157v245h123q127 0 213 49.5t86 149.5q0 174 -258 174q-94 0 -142 -14v-178h-235v380q215 57 371.5 57.5t268 -34.5t185.5 -118t74 -208q0 -268 -234 -370q123 -35 196 -124t73 -216 q0 -223 -158 -333t-419 -110t-441 84z" />
<glyph unicode="4" horiz-adv-x="1204" d="M45 43v246l641 858h264v-858h221v-246h-221v-143h158v-246h-582v246h158v143h-639zM352 289h334v448z" />
<glyph unicode="5" horiz-adv-x="1134" d="M41 -283l98 228q59 -29 155.5 -47.5t172.5 -18.5q131 0 219 63.5t88 188.5t-72.5 179.5t-173 54.5t-198.5 -58l-201 49l123 791h758v-397h-236v151h-311l-51 -313q68 23 145 22q211 0 346 -116.5t135 -352.5q0 -262 -170 -389q-156 -119 -404.5 -119t-422.5 84z" />
<glyph unicode="6" horiz-adv-x="1099" d="M82 633q0 604 313 762q119 59 274.5 59t329.5 -70l-81 -223q-146 47 -236 47q-158 0 -232.5 -92t-93.5 -282q96 53 230 53q215 0 343 -119t128 -323.5t-123 -334.5t-350 -130q-133 0 -233.5 55t-157.5 149q-111 190 -111 449zM348 588q4 -96 24.5 -172t75 -133.5 t150.5 -57.5t144.5 55.5t48.5 148.5t-62.5 152.5t-179.5 59.5t-201 -53z" />
<glyph unicode="7" horiz-adv-x="1052" d="M76 737v408h905v-244q0 -123 -152 -405q-63 -117 -125.5 -246t-106.5 -287.5t-44 -310.5h-256q0 178 49 358t111.5 307t144.5 296t123 286h-414v-162h-235z" />
<glyph unicode="8" horiz-adv-x="1153" d="M82 387q0 213 227 377q-164 111 -164 295t127 289.5t305.5 105.5t305.5 -105.5t127 -279.5q0 -102 -45 -176t-136 -160q117 -63 180.5 -145t63.5 -203q0 -172 -127 -288.5t-368.5 -116.5t-368.5 116.5t-127 290.5zM348 403q0 -178 229.5 -178t229.5 162q0 86 -74 140.5 t-256 119.5q-129 -90 -129 -244zM412 1069.5q0 -63.5 23.5 -104.5t70.5 -68q72 -37 160 -61q77 100 77 215q0 158 -163 157q-78 0 -123 -37.5t-45 -101z" />
<glyph unicode="9" horiz-adv-x="1099" d="M51 675q0 212 123 342t350 130q133 0 233.5 -58.5t155.5 -158.5q113 -197 113 -467q0 -606 -313 -762q-119 -59 -270.5 -59t-333.5 69l81 223q146 -47 236 -47q158 0 232.5 92.5t93.5 282.5q-96 -53 -230 -53q-215 0 -343 127t-128 339zM317 690q0 -100 62.5 -167.5 t182.5 -67.5t198 53q-4 150 -55 266q-54 127 -183 127q-205 0 -205 -211z" />
<glyph unicode=":" horiz-adv-x="567" d="M143 130.5q0 62.5 44 106.5t106.5 44t106.5 -44t44 -106.5t-44 -106.5t-106.5 -44t-106.5 44t-44 106.5zM143 709.5q0 62.5 44 106.5t106.5 44t106.5 -44t44 -106.5t-44 -106.5t-106.5 -44t-106.5 44t-44 106.5z" />
<glyph unicode=";" horiz-adv-x="579" d="M143 -279q100 125 111 236q-49 18 -75.5 63.5t-26.5 95.5t43 90t107.5 40t109.5 -42t45 -125t-56.5 -212t-140.5 -217zM152 709.5q0 62.5 44 106.5t106.5 44t106.5 -44t44 -106.5t-44 -106.5t-106.5 -44t-106.5 44t-44 106.5z" />
<glyph unicode="&#x3c;" horiz-adv-x="1265" d="M162 496v186l958 481v-299l-571 -274l571 -281v-299z" />
<glyph unicode="=" horiz-adv-x="1126" d="M123 256v240h881v-240h-881zM123 668v239h881v-239h-881z" />
<glyph unicode="&#x3e;" horiz-adv-x="1265" d="M162 10v299l571 281l-571 274v299l958 -481v-186z" />
<glyph unicode="?" d="M113 1004v366q158 84 405 84q510 0 510 -412q0 -172 -98.5 -270t-274.5 -174v-186h-237v331q262 92 319 191q27 47 27 106q0 168 -240 168q-106 0 -176 -24v-180h-235zM393 130.5q0 62.5 44 106.5t106.5 44t106.5 -44t44 -106.5t-44 -106.5t-106.5 -44t-106.5 44 t-44 106.5z" />
<glyph unicode="@" horiz-adv-x="2486" d="M102 451q0 268 97.5 493t254 367.5t348 221.5t395.5 79t391.5 -68.5t311 -211t123.5 -311.5t-90 -278.5t-225 -109.5q-82 0 -162 43l-51 -414h156l-29 -178q-115 -66 -240 -66q-51 0 -93 32t-50 73q-129 -115 -296 -115t-257 116t-90 318q0 279 164 474.5t457 195.5 q168 0 395 -74l-8 -106q7 -43 32 -43q55 0 77 43t22 86q0 135 -170 221t-383 86q-150 0 -291 -60.5t-253 -169t-179.5 -273.5t-67.5 -357q0 -303 182.5 -479t524.5 -176q272 0 492 86t362.5 235.5t218.5 344t76 415.5q0 371 -259 578.5t-704 246.5l45 287 q557 -37 882.5 -339t325.5 -771q0 -268 -101 -514t-282.5 -437.5t-459 -305t-604.5 -113.5q-469 0 -728.5 250t-259.5 678zM881 469q0 -197 129 -197q92 0 155.5 65.5t83.5 186.5l49 310q-45 14 -98 14q-150 0 -234.5 -111.5t-84.5 -267.5z" />
<glyph unicode="A" horiz-adv-x="1837" d="M-92 934q0 233 233.5 366.5t747.5 133.5h561v-246h-121l373 -942h135v-246h-526v246h121l-43 114h-537l-43 -114h123v-246h-526v246h133l370 942h-20q-412 0 -568.5 -57.5t-156.5 -196.5q0 -111 104 -111q96 0 97 131h256q0 -159 -84 -267.5t-268.5 -108.5t-272.5 104 t-88 252zM936 586h367l-183 487z" />
<glyph unicode="B" horiz-adv-x="1851" d="M-92 954q0 233 219 366.5t700 133.5h93q784 0 784 -418q0 -209 -195 -295q119 -41 188.5 -134t69.5 -224q0 -176 -141 -289.5t-409 -113.5q-45 0 -209 10t-263 10h-229v246h199v960q-307 -8 -429 -66.5t-122 -177t104 -118.5q96 0 97 131h256q0 -158 -84 -267.5 t-268.5 -109.5t-272.5 104.5t-88 251.5zM981 240q205 -14 287 -14q1 0 2 -1q81 -1 140 51q60 52 60 139t-61 130t-162 43h-184v246h162q78 0 130 45t52 138t-96.5 142t-329.5 49v-968z" />
<glyph unicode="C" horiz-adv-x="1320" d="M72 712.5q0 325.5 184 533.5t502 208q199 0 347 -123t148 -317q0 -148 -88 -252.5t-272 -104.5t-268 110t-84 267h256q0 -131 96 -131q74 0 74 111q0 82 -63.5 133t-145.5 51q-186 0 -298 -136t-112 -345t111.5 -345t310.5 -136t367 176l155 -195q-190 -238 -520 -238 l-1 1q-331 0 -515 203.5t-184 529z" />
<glyph unicode="D" horiz-adv-x="1888" d="M-92 934q0 233 219 366.5t700 133.5h93q436 0 666.5 -210t230.5 -569q0 -350 -207 -536q-160 -139 -445 -139l-420 20h-210v246h180v940q-307 -8 -429 -66.5t-122 -177.5t104 -119q96 0 97 131h256q0 -158 -84 -267t-268.5 -109t-272.5 104t-88 252zM981 238 q139 -12 215 -12q1 0 2 -1q74 0 150 38t118 102q74 121 74 290q0 254 -142.5 393.5t-416.5 139.5v-950z" />
<glyph unicode="E" horiz-adv-x="1751" d="M-92 934q0 233 219 366.5t700 133.5h840v-420h-235v174h-451v-357h160v123h235v-491h-235v123h-160v-340h469v174h236v-420h-1170v246h199v940q-307 -8 -429 -66.5t-122 -177.5t104 -119q96 0 97 131h256q0 -157 -84 -266.5t-268.5 -109.5t-272.5 104t-88 252z" />
<glyph unicode="F" horiz-adv-x="1675" d="M-92 934q0 233 219 366.5t700 133.5h840v-420h-235v174h-451v-357h160v123h235v-491h-235v123h-160v-340h188v-246h-653v246h199v940q-307 -8 -429 -66.5t-122 -177.5t104 -119q96 0 97 131h256q0 -157 -84 -266.5t-268.5 -109.5t-272.5 104t-88 252z" />
<glyph unicode="G" horiz-adv-x="1443" d="M72 712.5q0 325.5 184 533.5t502 208q199 0 347 -114.5t148 -295.5q0 -135 -80.5 -230t-257 -95t-260.5 91t-84 224h256q0 -69 64 -69h2q74 0 74 73.5t-63.5 116.5t-145.5 43q-186 0 -298 -136t-112 -345t111.5 -345t283.5 -136t291 133h-346v245h612v-614h-219l-28 90 q-138 -110 -323 -110h-3q-305 0 -480 203.5t-175 529z" />
<glyph unicode="H" horiz-adv-x="2035" d="M-92 934q0 233 219 366.5t700 133.5h332v-246h-178v-352h549v352h-178v246h643v-246h-199v-942h199v-246h-643v246h178v344h-549v-344h178v-246h-643v246h199v940q-307 -8 -429 -66.5t-122 -177.5t104 -119q96 0 97 131h256q0 -157 -84 -266.5t-268.5 -109.5t-272.5 104 t-88 252z" />
<glyph unicode="I" horiz-adv-x="1228" d="M-92 934q0 233 219 366.5t700 133.5h353v-246h-199v-942h199v-246h-645v246h180v940q-307 -8 -429 -66.5t-122 -177.5t104 -119q96 0 97 131h256q0 -157 -84 -266.5t-268.5 -109.5t-272.5 104t-88 252z" />
<glyph unicode="J" horiz-adv-x="1228" d="M-92 934q0 233 219 366.5t700 133.5h353v-246h-199v-983q0 -248 -135 -390.5t-395 -142.5v236q127 0 195.5 77.5t68.5 219.5v981q-307 -8 -429 -66.5t-122 -177.5t104 -119q96 0 97 131h256q0 -158 -84 -267t-268.5 -109t-272.5 104t-88 252z" />
<glyph unicode="K" horiz-adv-x="1982" d="M-92 934q0 233 219 366.5t700 133.5h258v-246h-104v-369l117 74l241 295h-79v246h565v-246h-160l-373 -436l203 -424q59 -104 130 -104q1 0 2 -1q69 0 91 30t21 95h246q0 -195 -86.5 -283t-249.5 -88q-244 0 -385 250l-170 353l-113 -48v-286h137v-246h-602v246h199v940 q-307 -8 -429 -66.5t-122 -177.5t104 -119q96 0 97 131h256q0 -157 -84 -266.5t-268.5 -109.5t-272.5 104t-88 252z" />
<glyph unicode="L" horiz-adv-x="1718" d="M-92 934q0 233 219 366.5t700 133.5h301v-246h-147v-942h449v174h235v-420h-1149v246h199v940q-307 -8 -429 -66.5t-122 -177.5t104 -119q96 0 97 131h256q0 -157 -84 -266.5t-268.5 -109.5t-272.5 104t-88 252z" />
<glyph unicode="M" horiz-adv-x="2273" d="M-92 934q0 233 219 366.5t700 133.5h185l362 -883l363 883h495v-246h-198v-973h198v-215h-612v215h147v647l-290 -739h-205l-291 739v-647h147v-215h-612v215h199v971q-307 -8 -429 -66.5t-122 -177.5t104 -119q96 0 97 131h256q0 -157 -84 -266.5t-268.5 -109.5 t-272.5 104t-88 252z" />
<glyph unicode="N" horiz-adv-x="2066" d="M-92 934q0 233 219 366.5t700 133.5h158l596 -957v711h-178v246h643v-246h-199v-1188h-252l-614 981v-735h178v-246h-643v246h199v940q-307 -8 -429 -66.5t-122 -177.5t104 -119q96 0 97 131h256q0 -157 -84 -266.5t-268.5 -109.5t-272.5 104t-88 252z" />
<glyph unicode="O" horiz-adv-x="1515" d="M72 716.5q0 321.5 186 529.5t500.5 208t500 -206t185.5 -529.5t-184.5 -531t-502 -207.5t-501.5 207.5t-184 529zM348 717q0 -213 111.5 -352.5t298 -139.5t298 139.5t111.5 350.5t-111.5 347t-297.5 136q-82 0 -145.5 -51t-63.5 -133q0 -111 74 -111q96 0 96 131h256 q0 -160 -84 -268.5t-270 -108.5q-84 0 -156 53.5t-107 116.5q-10 -25 -10 -110z" />
<glyph unicode="P" horiz-adv-x="1744" d="M-92 934q0 233 219 366.5t700 133.5h93q383 0 568 -126t185 -346.5t-138 -343t-351 -122.5q-115 0 -203 16v-266h240v-246h-705v246h199v940q-307 -8 -429 -66.5t-122 -177.5t104 -119q96 0 97 131h256q0 -157 -84 -266.5t-268.5 -109.5t-272.5 104t-88 252zM981 764 q80 -23 187.5 -23t173 61.5t65.5 167t-97.5 162t-328.5 56.5v-424z" />
<glyph unicode="Q" horiz-adv-x="1495" d="M72 726q0 312 186 520t500.5 208t500 -206t185.5 -527q0 -254 -113.5 -440.5t-320.5 -260.5l454 -354l-172 -198l-608 516q-285 24 -448.5 227t-163.5 515zM348 717q0 -213 111.5 -352.5t298 -139.5t298 139.5t111.5 350.5t-111.5 347t-297.5 136q-82 0 -145.5 -51 t-63.5 -133q0 -111 74 -111q96 0 96 131h256q0 -160 -84 -268.5t-270 -108.5q-84 0 -156 53.5t-107 116.5q-10 -27 -10 -110z" />
<glyph unicode="R" horiz-adv-x="1851" d="M-92 934q0 233 219 366.5t700 133.5h93q383 0 568 -126t185 -343q0 -180 -91 -296t-245 -155q45 -158 94.5 -224.5t112.5 -66.5q49 0 49 64h246q0 -158 -80 -234t-194 -76q-180 0 -290 118t-198 403q-61 6 -96 14v-266h117v-246h-582v246h199v940q-307 -8 -429 -66.5 t-122 -177.5t104 -119q96 0 97 131h256q0 -158 -84 -267t-268.5 -109t-272.5 104t-88 252zM981 764q80 -23 187.5 -23t173 61.5t65.5 167t-97.5 162t-328.5 56.5v-424z" />
<glyph unicode="S" horiz-adv-x="987" d="M-92 88v369h235v-187q117 -41 243 -41t205 30t79 79q0 31 -20.5 52.5t-82.5 58.5l-354 206q-207 137 -258 271q-29 72 -29 153q0 182 145.5 285.5t360.5 103.5t357.5 -97t142.5 -251q0 -160 -94 -233q-86 -68 -256 -68v236q49 0 66.5 13t17.5 48t-56.5 71t-167 36 t-180 -34t-69.5 -99.5t29.5 -107.5t103.5 -87l393 -240q215 -133 215 -311t-150.5 -269t-417 -91t-458.5 104z" />
<glyph unicode="T" horiz-adv-x="1587" d="M-92 934q0 233 212 366.5t677 133.5h721v-424h-244v178h-211v-942h199v-246h-646v246h181v942h-144q-268 0 -378.5 -63.5t-110.5 -182.5t104 -119q96 0 97 131h256q0 -158 -84 -267t-268.5 -109t-272.5 104t-88 252z" />
<glyph unicode="U" horiz-adv-x="2074" d="M-92 934q0 233 219 366.5t700 133.5h332v-246h-178v-707q0 -104 87 -174.5t225.5 -70.5t228.5 70.5t90 174.5v707h-178v246h643v-246h-199v-707q0 -213 -158.5 -357t-426 -144t-423 143t-155.5 358v705q-307 -8 -429 -66.5t-122 -177.5t104 -119q96 0 97 131h256 q0 -157 -84 -266.5t-268.5 -109.5t-272.5 104t-88 252z" />
<glyph unicode="V" horiz-adv-x="1802" d="M-92 934q0 233 219 366.5t700 133.5h224v-246h-113l229 -776l232 776h-113v246h516v-246h-131l-366 -1188h-273l-366 1184q-279 -12 -390.5 -70.5t-111.5 -174.5t104 -116q96 0 97 131h256q0 -157 -84 -266.5t-268.5 -109.5t-272.5 104t-88 252z" />
<glyph unicode="W" horiz-adv-x="2484" d="M-92 934q0 233 219 366.5t700 133.5h275v-246h-117l193 -756l252 1002h210l250 -1002l195 756h-117v246h516v-246h-127l-319 -1188h-273l-231 829l-229 -829h-273l-319 1186q-307 -8 -428 -66.5t-121 -177.5t104 -119q96 0 97 131h256q0 -157 -84 -266.5t-268.5 -109.5 t-272.5 104t-88 252z" />
<glyph unicode="X" horiz-adv-x="1675" d="M-92 934q0 233 226 366.5t724 133.5h88v-246h-43l148 -238l147 238h-76v246h516v-246h-149l-281 -451l312 -491h153v-246h-516v246h70l-176 282l-174 -282h63v-246h-516v246h162l307 491l-277 443q-252 -20 -352 -76.5t-100 -168.5t104 -112q96 0 97 131h256 q0 -159 -84 -267.5t-268.5 -108.5t-272.5 104t-88 252z" />
<glyph unicode="Y" horiz-adv-x="1646" d="M-92 934q0 233 212 366.5t677 133.5h188v-246h-82l154 -340l153 340h-82v246h517v-246h-144l-311 -629v-313h199v-246h-664v246h199v313l-310 625q-250 -14 -350 -71.5t-100 -173.5t104 -116q96 0 97 131h256q0 -157 -84 -266.5t-268.5 -109.5t-272.5 104t-88 252z" />
<glyph unicode="Z" horiz-adv-x="1509" d="M-92 934q0 233 219 366.5t700 133.5h570v-205l-692 -983h493v141h205v-387h-1049v205l690 983h-221q-373 0 -516 -58.5t-143 -195.5q0 -111 104 -111q96 0 97 131h256q0 -157 -84 -266.5t-268.5 -109.5t-272.5 104t-88 252z" />
<glyph unicode="[" horiz-adv-x="589" d="M82 -410v2038h426v-225h-180v-1587h180v-226h-426z" />
<glyph unicode="\" horiz-adv-x="860" d="M20 1434h226l594 -1495h-226z" />
<glyph unicode="]" horiz-adv-x="589" d="M82 -184h180v1587h-180v225h426v-2038h-426v226z" />
<glyph unicode="^" horiz-adv-x="1001" d="M27 748l383 686h184l385 -686h-270l-207 356l-209 -356h-266z" />
<glyph unicode="_" horiz-adv-x="1208" d="M0 0h1208v-240h-1208v240z" />
<glyph unicode="`" horiz-adv-x="686" d="M90 1880l227 154l207 -375l-172 -103z" />
<glyph unicode="a" horiz-adv-x="1130" d="M61 283.5q0 144.5 115 245t338 100.5h162v73q0 96 -121 96q-2 0 -4 1q-118 0 -211 -27v-117h-236v306q100 39 234.5 61t224.5 22q178 0 278.5 -93t100.5 -249v-487h168v-178q-88 -47 -221 -47q-213 0 -213 143q-127 -153 -282.5 -153t-244 79.5t-88.5 224zM328 280.5 q0 -55.5 84 -55.5q141 0 264 168v8h-164q-94 0 -139 -32.5t-45 -88z" />
<glyph unicode="b" horiz-adv-x="1191" d="M20 1311v225h424v-594q92 102 248 102q205 0 316.5 -150.5t111.5 -382.5t-137 -381.5t-397 -149.5q-193 0 -408 61v1270h-158zM444 250q55 -25 125 -25q141 0 213 78t72 203t-51 209t-145.5 84t-154 -96.5t-59.5 -231.5v-221z" />
<glyph unicode="c" horiz-adv-x="1013" d="M72 512q0 231 132 381.5t352 150.5t378 -83v-336h-236v157q-55 16 -125 17q-111 0 -173 -80t-62 -207t62.5 -207t157.5 -80t159.5 18.5t90.5 34t69 46.5l106 -207q-160 -137 -403.5 -137t-375.5 150.5t-132 381.5z" />
<glyph unicode="d" horiz-adv-x="1202" d="M72 508.5q0 232.5 130 384t373 151.5q70 0 173 -12v279h-158v225h424v-1321h168v-178q-88 -47 -221 -47q-203 0 -213 123q-94 -133 -242 -133q-209 0 -321.5 148t-112.5 380.5zM338 517q0 -128 52 -210t144.5 -82t153 96.5t60.5 231.5v211q-80 35 -158 35 q-115 0 -183.5 -77t-68.5 -205z" />
<glyph unicode="e" horiz-adv-x="1091" d="M72 512q0 231 132 381.5t360.5 150.5t347 -147.5t118.5 -376.5v-108h-692q6 -82 68.5 -134.5t146.5 -52.5t142.5 12.5t82 22.5t70.5 37l49 27l107 -207q-168 -137 -418 -137t-382 150.5t-132 381.5zM346 618h418q-8 82 -56.5 131.5t-137.5 49.5t-147 -50.5t-77 -130.5z " />
<glyph unicode="f" horiz-adv-x="792" d="M41 0v225h160v574h-158v205l158 20v94q0 215 93 324.5t331 109.5q88 0 225 -16v-367h-236v138q-88 -2 -117.5 -47.5t-29.5 -141.5v-94h295v-225h-295v-574h147v-225h-573z" />
<glyph unicode="g" horiz-adv-x="1101" d="M78 -162q0 66 28.5 122t90.5 81q-111 45 -111 181.5t121 199.5q-105 96 -105 256q0 158 117 262t324 104q131 0 221 -45h338v-239h-135q16 -49 16 -84q0 -160 -116.5 -264.5t-323.5 -104.5q-76 0 -148 17q-16 -2 -29.5 -15.5t-13.5 -32t15 -26.5q23 -16 88 -23l303 -43 q139 -20 221 -101t82 -219t-149.5 -230.5t-379 -92.5t-342 84t-112.5 213zM344 -150q0 -63 176 -63q121 0 198 22.5t77 67.5q0 53 -93 64l-251 28q-43 -8 -75 -43t-32 -76zM369 676q0 -55 45 -89t129 -34t129 34t45 89t-45 89t-129 34t-129 -34t-45 -89z" />
<glyph unicode="h" horiz-adv-x="1310" d="M41 0v225h158v1086h-158v225h424v-582q176 90 317 90q193 0 266.5 -112.5t73.5 -310.5v-406h168v-178q-88 -47 -213 -47t-173 55t-48 180v396q0 90 -24.5 134t-114.5 44t-252 -123v-451h178v-225h-602z" />
<glyph unicode="i" horiz-adv-x="737" d="M82 0v225h160v574h-158v225h424v-799h178v-225h-604zM231 1277.5q0 63.5 43 110t107.5 46.5t103.5 -45.5t39 -108.5t-43 -109.5t-106.5 -46.5t-103.5 45t-40 108.5z" />
<glyph unicode="j" horiz-adv-x="661" d="M-6 -217q129 0 188.5 66.5t59.5 201.5v748h-158v225h424v-973q0 -231 -124 -371.5t-390 -140.5v244zM231 1277.5q0 63.5 43 110t107.5 46.5t103.5 -45.5t39 -108.5t-43 -109.5t-106.5 -46.5t-103.5 45t-40 108.5z" />
<glyph unicode="k" horiz-adv-x="1161" d="M20 0v225h160v1086h-157v225h423v-899l72 27l137 135h-69v225h532v-225h-114l-263 -260l265 -324h155v-178q-45 -27 -79.5 -37t-112.5 -10t-127 27.5t-92 84.5l-238 312l-66 -27v-162h138v-225h-564z" />
<glyph unicode="l" horiz-adv-x="696" d="M41 0v225h160v1086h-158v225h424v-1311h178v-225h-604z" />
<glyph unicode="m" horiz-adv-x="1888" d="M41 0v225h158v574h-158v225h362l31 -100q155 120 285 120h2q205 0 295 -118q195 118 342 118h2q193 0 266.5 -112.5t73.5 -310.5v-406h168v-178q-88 -47 -213 -47t-173 55t-48 180v396q0 90 -25 134t-108.5 44t-213.5 -90q4 -57 5 -88v-406h168v-215h-541v225h106v396 q0 90 -24.5 134t-110.5 44t-225 -123v-451h127v-225h-551z" />
<glyph unicode="n" horiz-adv-x="1310" d="M41 0v225h158v574h-158v225h362l31 -100q191 120 345 120h3q193 0 266.5 -112.5t73.5 -310.5v-406h168v-178q-88 -47 -213 -47t-173 55t-48 180v396q0 90 -24.5 134t-114.5 44t-252 -123v-451h178v-225h-602z" />
<glyph unicode="o" d="M72 512q0 231 137 381.5t385 150.5t385 -150.5t137 -381.5t-137 -381.5t-385 -150.5t-385 150.5t-137 381.5zM338 512q0 -125 67.5 -206t188.5 -81t188.5 81t67.5 206t-67.5 206t-188.5 81t-188.5 -81t-67.5 -206z" />
<glyph unicode="p" horiz-adv-x="1222" d="M41 805v219h371l32 -117q102 133 273 133q209 0 321.5 -148.5t112.5 -380.5t-130 -384t-374 -152q-70 0 -172 13v-203h127v-225h-551v221h158v1024h-168zM475 256q80 -35 158 -35q115 0 183.5 77t68.5 205t-52.5 210t-144.5 82t-152.5 -96.5t-60.5 -231.5v-211z" />
<glyph unicode="q" horiz-adv-x="1171" d="M72 513q0 232 137 381.5t397 149.5q193 0 408 -61v-1198h157v-225h-571v225h148v297q-92 -102 -248 -102q-205 0 -316.5 150.5t-111.5 382.5zM338 518q0 -125 51 -209t145.5 -84t154 96.5t59.5 231.5v221q-55 25 -125 25q-141 0 -213 -78t-72 -203z" />
<glyph unicode="r" horiz-adv-x="923" d="M41 0v225h158v574h-158v225h385l25 -109q190 129 331 129l146 -30l-78 -260l-92 24q-139 0 -293 -86v-467h147v-225h-571z" />
<glyph unicode="s" horiz-adv-x="960" d="M82 59v297h235v-118q57 -10 136 -11q159 0 159 53q0 21 -96 78l-246 148q-90 55 -133 116.5t-43 153.5q0 127 108.5 197.5t295 70.5t354.5 -83v-306h-236v127q-59 16 -133 17q-123 0 -123 -45q0 -6 3.5 -9.5t5.5 -6.5t6 -6t8 -5t10 -6t11.5 -7t14.5 -9.5t17 -10.5 l277 -168q166 -102 166 -244.5t-117 -221t-328 -78.5t-352 77z" />
<glyph unicode="t" horiz-adv-x="821" d="M41 799v205l178 20q68 170 88 270h178v-270h244v-225h-244v-506q0 -35 11.5 -52.5t50.5 -17.5t135 39l98 -209q-130 -74 -278 -74l-2 1q-148 0 -214.5 77.5t-66.5 202.5v539h-178z" />
<glyph unicode="u" horiz-adv-x="1290" d="M20 809v215h424v-621q0 -90 26 -135t112 -45t254 125v451h-127v225h393v-809h168v-178q-88 -47 -230.5 -47t-183.5 104q-188 -117 -338 -117q-193 0 -266.5 114t-73.5 312v406h-158z" />
<glyph unicode="v" horiz-adv-x="1179" d="M20 799v225h486v-225h-68l152 -445l151 445h-67v225h485v-225h-127l-295 -799h-295l-295 799h-127z" />
<glyph unicode="w" horiz-adv-x="1560" d="M-20 799v225h434v-225h-52l109 -506l188 731h242l178 -729l117 504h-49v225h434v-225h-117l-207 -799h-333l-144 537l-143 -537h-334l-209 799h-114z" />
<glyph unicode="x" horiz-adv-x="1048" d="M-10 0v225h100l275 297l-261 277h-104v225h428v-225l96 -105l97 105v225h428v-225h-105l-260 -277l274 -297h101v-225h-467v225h53l-121 127l-121 -127h54v-225h-467z" />
<glyph unicode="y" horiz-adv-x="1144" d="M20 799v225h488v-225h-55l151 -457l133 457h-73v225h471v-225h-127l-236 -799q-131 -463 -496 -463q-111 0 -235 37l72 258q92 -27 163 -27q127 0 205 164l-336 830h-125z" />
<glyph unicode="z" horiz-adv-x="991" d="M47 0v246l531 532h-240v-119h-266v365h864v-246l-526 -532h245v141h267v-387h-875z" />
<glyph unicode="{" horiz-adv-x="645" d="M25 600v182q166 33 165 191v327q0 172 78 250t250 78h98v-225h-77q-102 0 -103 -103v-276q0 -289 -135 -328q135 -37 135 -317v-440q0 -123 103 -123h77v-226h-98q-174 0 -251 77t-77 251v522q0 35 -8 61.5t-48 56.5t-109 42z" />
<glyph unicode="|" horiz-adv-x="552" d="M164 -328v1864h225v-1864h-225z" />
<glyph unicode="}" horiz-adv-x="645" d="M25 -184h77q102 0 103 123v440q0 281 135 317q-135 39 -135 328v276q0 102 -103 103h-77v225h98q172 0 250 -77.5t78 -250.5v-327q0 -158 165 -191v-182q-70 -12 -109.5 -42t-47.5 -56.5t-8 -61.5v-522q0 -174 -77 -251t-251 -77h-98v226z" />
<glyph unicode="~" horiz-adv-x="1081" d="M61 504q119 239 324 239q74 0 134.5 -17t115.5 -34.5t78 -23.5l176 86l131 -103q-111 -242 -301 -241q-90 0 -203 36.5t-127 40.5l-196 -86z" />
<glyph unicode="&#xa1;" horiz-adv-x="737" d="M221 -616l41 1228h225l41 -1228h-307zM223 893.5q0 62.5 44 106.5t106.5 44t106.5 -44t44 -106.5t-44 -106.5t-106.5 -44t-106.5 44t-44 106.5z" />
<glyph unicode="&#xa2;" horiz-adv-x="1013" d="M72 514q0 197 99 338t280 180v160h235v-154q131 -18 248 -77v-336h-236v157q-55 16 -125 17q-111 0 -173 -80t-62 -207t62.5 -207t157.5 -80t159.5 18.5t90.5 34t69 46.5l106 -207q-121 -104 -307 -129v-156h-236v162q-176 41 -272 182t-96 338z" />
<glyph unicode="&#xa3;" horiz-adv-x="1128" d="M74 0v246q86 0 137 95t51 189v76h-147v199h147v190q0 201 122 316.5t325.5 115.5t345.5 -84v-366h-236v184q-43 20 -122 20.5t-124 -48t-45 -127.5v-201h203v-199h-203v-71q0 -82 -37.5 -168t-93.5 -121h678v-246h-1001z" />
<glyph unicode="&#xa4;" horiz-adv-x="1148" d="M16 289l150 92q-35 98 -35 197.5t35 181.5l-150 96l138 186l133 -122q113 94 284.5 94t292.5 -94l135 122l138 -186l-152 -98q35 -82 35 -181.5t-35 -193.5l152 -94l-136 -187l-129 113q-115 -102 -297 -102t-296 102l-125 -115zM367 568.5q0 -101.5 56 -171t152.5 -69.5 t152.5 69.5t56 171t-56 166t-152.5 64.5t-152.5 -64.5t-56 -166z" />
<glyph unicode="&#xa5;" horiz-adv-x="1738" d="M0 934q0 233 212 366.5t677 133.5h188v-246h-82l138 -303h32l138 303h-82v246h516v-246h-144l-149 -303h84v-209h-189l-47 -96h236v-209h-246v-125h199v-246h-664v246h199v125h-215v209h205l-50 96h-155v209h53l-147 299q-250 -14 -350.5 -71.5t-100.5 -173.5t104 -116 q96 0 97 131h256q0 -157 -84 -266.5t-268.5 -109.5t-272.5 104t-88 252z" />
<glyph unicode="&#xa6;" horiz-adv-x="583" d="M164 -328v820h256v-820h-256zM164 717v819h256v-819h-256z" />
<glyph unicode="&#xa7;" horiz-adv-x="952" d="M74 571q0 150 129 277q-97 90 -97 213q0 158 119 246t292 88t355 -54v-337h-204v141q-96 14 -151.5 14t-100.5 -21.5t-45 -72.5t82 -90l204 -101q119 -57 180.5 -127.5t61.5 -177.5q0 -150 -129 -276q96 -94 96 -213q0 -158 -118.5 -246t-291.5 -88t-356 53v338h205v-141 q96 -14 151.5 -14t100.5 21.5t45 72.5t-82 90l-205 100q-119 57 -180 128t-61 177zM329.5 609q0.5 -50 25 -74.5t87.5 -57.5l131 -67q70 70 70 121t-24.5 75.5t-88.5 57.5l-133 65q-68 -70 -67.5 -120z" />
<glyph unicode="&#xa8;" horiz-adv-x="1122" d="M197 1781.5q0 63.5 42 108.5t102 45t98 -43t38 -105.5t-42 -107.5t-102.5 -45t-98 42t-37.5 105.5zM653 1781.5q0 63.5 42 108.5t102.5 45t98.5 -43t38 -105.5t-42 -107.5t-102.5 -45t-98.5 42t-38 105.5z" />
<glyph unicode="&#xa9;" horiz-adv-x="1710" d="M49 711.5q0 351.5 215 580t591 228.5t591 -228.5t215 -578.5q0 -229 -92 -413.5t-277.5 -298.5t-435.5 -114q-375 0 -591 236.5t-216 588zM268 711.5q0 -267.5 158 -447.5t429 -180t429 180t158 447.5t-157 438.5t-430 171t-430 -171t-157 -438.5zM451 699.5 q0 189.5 118.5 314.5t302.5 125q141 0 239.5 -90.5t98.5 -235.5l-239 -2q0 49 -25.5 73.5t-62.5 24.5q-78 0 -128 -59t-50 -148.5t50 -148.5t132 -59q47 0 101 20.5t87 58.5l154 -147q-127 -160 -334 -160t-325.5 122t-118.5 311.5z" />
<glyph unicode="&#xaa;" horiz-adv-x="802" d="M123 1133.5q0 76.5 60.5 131t178.5 54.5h87v37q0 51 -62 51q-18 0 -104 -13.5t-111 -21.5l-27 123q109 43 225.5 43t169 -49t52.5 -133v-258h88v-94q-47 -27 -117 -27q-114 0 -114 78q-66 -82 -149 -82t-130 42t-47 118.5zM266 1135q0 -31 43 -31q76 0 140 92h-87 q-96 0 -96 -61z" />
<glyph unicode="&#xab;" horiz-adv-x="1159" d="M119 360v111l373 350l110 -100l-246 -305l246 -305l-110 -101zM541 360v111l372 350l111 -100l-246 -305l246 -305l-111 -101z" />
<glyph unicode="&#xac;" horiz-adv-x="880" d="M123 432v219h635v-405h-209v186h-426z" />
<glyph unicode="&#xad;" horiz-adv-x="819" d="M123 483v209h573v-209h-573z" />
<glyph unicode="&#xae;" horiz-adv-x="1435" d="M57 851q0 292 178.5 481.5t490.5 189.5t490.5 -189.5t178.5 -481.5t-179.5 -488.5t-490.5 -196.5t-489.5 196.5t-178.5 488.5zM240 853q0 -212 131 -359.5t355 -147.5t353 146.5t129 359.5t-129 350t-354 137t-355 -137t-130 -349zM451 506v145h81v408h-81v147h196 q176 0 263 -64.5t87 -172.5q0 -141 -100 -197l84 -121h47v-145h-242v145h19l-66 94q-39 0 -53 5v-99h45v-145h-280zM686 899q61 -6 84 -6t48.5 21.5t25.5 54.5q0 78 -158 90v-160z" />
<glyph unicode="&#xaf;" horiz-adv-x="1153" d="M172 1210v254h797v-254h-797z" />
<glyph unicode="&#xb0;" horiz-adv-x="827" d="M123 1317q0 133 73.5 211t217 78t217.5 -78t74 -211t-74 -211t-217.5 -78t-217 78t-73.5 211zM319 1316.5q0 -102.5 93.5 -102.5t93.5 102.5t-93.5 102.5t-93.5 -102.5z" />
<glyph unicode="&#xb1;" horiz-adv-x="1126" d="M123 61v240h881v-240h-881zM123 719v239h317v320h246v-320h318v-239h-318v-322h-246v322h-317z" />
<glyph unicode="&#xb2;" horiz-adv-x="720" d="M123 926v143q96 47 182 114.5t86 137.5q0 47 -61 47q-31 0 -68 -8v-72h-135v207q88 41 201 41q240 0 239 -182q0 -174 -221 -334l6 -4l180 102h66l-23 -192h-452z" />
<glyph unicode="&#xb3;" horiz-adv-x="716" d="M123 977l55 145q72 -29 130.5 -28.5t84 16.5t25.5 37q0 47 -84 47h-74v106h35q109 0 108 48q0 29 -73.5 28.5t-145.5 -14.5l-39 158q119 25 208 24.5t158 -40.5t69 -122t-68 -129q82 -45 82 -138t-74 -141t-184.5 -48t-212.5 51z" />
<glyph unicode="&#xb4;" horiz-adv-x="792" d="M90 1659l207 375l227 -154l-262 -324z" />
<glyph unicode="&#xb6;" horiz-adv-x="1689" d="M23 750q0 233 211.5 366t676.5 133h721v-221h-153v-1479h-236v1479h-209v-1479h-235v1452q-291 -8 -405.5 -66t-114.5 -177t104 -119q96 0 96 131h256q0 -158 -84 -267.5t-268 -109.5t-272 104.5t-88 252.5z" />
<glyph unicode="&#xb7;" horiz-adv-x="563" d="M143 615.5q0 62.5 44 106.5t106.5 44t106.5 -44t44 -106.5t-44 -106.5t-106.5 -44t-106.5 44t-44 106.5z" />
<glyph unicode="&#xb8;" horiz-adv-x="960" d="M231 -483l70 190q39 -20 128 -20t89 57q0 63 -78 63q-43 0 -80 -16l-43 141l136 88h239l-102 -61q149 -39 149 -223q0 -133 -80.5 -198.5t-203.5 -65.5t-224 45z" />
<glyph unicode="&#xb9;" horiz-adv-x="647" d="M123 1448l299 94v-450h102v-168h-389v168h111v231l-105 -16z" />
<glyph unicode="&#xba;" horiz-adv-x="827" d="M123 1204.5q0 157.5 73.5 248.5t217 91t217.5 -91t74 -248.5t-74 -249t-217.5 -91.5t-217 91.5t-73.5 249zM334 1204.5q0 -141.5 80 -141.5t80 141.5t-80 141.5t-80 -141.5z" />
<glyph unicode="&#xbb;" horiz-adv-x="1159" d="M135 111l246 305l-246 305l111 100l372 -350v-111l-372 -350zM557 111l246 305l-246 305l111 100l372 -350v-111l-372 -350z" />
<glyph unicode="&#xbc;" horiz-adv-x="765" d="M104 102v138l295 362h156v-356h84v-144h-84v-102h-176v102h-275zM188 694v142h469v-142h-469zM215 1448l299 94v-450h102v-168h-389v168h111v231l-105 -16zM242 246h137v174z" />
<glyph unicode="&#xbd;" horiz-adv-x="729" d="M123 694v142h469v-142h-469zM131 0v143q96 47 182 115t86 137q0 47 -61 47q-31 0 -68 -8v-72h-135v207q88 41 201 41q240 0 239 -182q0 -174 -221 -334l6 -4l181 103h65l-22 -193h-453zM160 1448l299 94v-450h102v-168h-389v168h111v231l-105 -16z" />
<glyph unicode="&#xbe;" horiz-adv-x="780" d="M123 102v138l295 362h155v-356h84v-144h-84v-102h-176v102h-274zM166 694v142h469v-142h-469zM170 977l55 145q72 -29 130.5 -28.5t84 16.5t25.5 37q0 47 -84 47h-74v106h35q109 0 109 48q0 29 -74 28.5t-146 -14.5l-38 158q119 25 207.5 24.5t157.5 -40.5t69 -122 t-68 -129q82 -45 82 -138t-73.5 -141t-184.5 -48t-213 51zM260 246h137v174z" />
<glyph unicode="&#xbf;" d="M113 20h235v-180q70 -25 176 -24q240 0 240 168q0 117 -109 188q-88 57 -237 109v331h237v-186q176 -76 274.5 -174t98.5 -270q0 -412 -510 -412q-248 0 -405 84v366zM393 893.5q0 62.5 44 106.5t106.5 44t106.5 -44t44 -106.5t-44 -106.5t-106.5 -44t-106.5 44 t-44 106.5z" />
<glyph unicode="&#xc0;" horiz-adv-x="1837" d="M-92 934q0 233 233.5 366.5t747.5 133.5h561v-246h-121l373 -942h135v-246h-526v246h121l-43 114h-537l-43 -114h123v-246h-526v246h133l370 942h-20q-412 0 -568.5 -57.5t-156.5 -196.5q0 -111 104 -111q96 0 97 131h256q0 -160 -84 -268t-268.5 -108t-272.5 104 t-88 252zM924 1880l227 154l207 -375l-172 -103zM936 586h367l-183 487z" />
<glyph unicode="&#xc1;" horiz-adv-x="1837" d="M-92 934q0 233 233.5 366.5t747.5 133.5h561v-246h-121l373 -942h135v-246h-526v246h121l-43 114h-537l-43 -114h123v-246h-526v246h133l370 942h-20q-412 0 -568.5 -57.5t-156.5 -196.5q0 -111 104 -111q96 0 97 131h256q0 -160 -84 -268t-268.5 -108t-272.5 104 t-88 252zM936 586h367l-183 487zM1042 1659l207 375l228 -154l-263 -324z" />
<glyph unicode="&#xc2;" horiz-adv-x="1837" d="M-92 934q0 233 233.5 366.5t747.5 133.5h561v-246h-121l373 -942h135v-246h-526v246h121l-43 114h-537l-43 -114h123v-246h-526v246h133l370 942h-20q-412 0 -568.5 -57.5t-156.5 -196.5q0 -111 104 -111q96 0 97 131h256q0 -160 -84 -268t-268.5 -108t-272.5 104 t-88 252zM799 1638l266 301h168l266 -301l-127 -102l-223 184l-223 -184zM936 586h367l-183 487z" />
<glyph unicode="&#xc3;" horiz-adv-x="1837" d="M-92 934q0 233 233.5 366.5t747.5 133.5h561v-246h-121l373 -942h135v-246h-526v246h121l-43 114h-537l-43 -114h123v-246h-526v246h133l370 942h-20q-412 0 -568.5 -57.5t-156.5 -196.5q0 -111 104 -111q96 0 97 131h256q0 -160 -84 -268t-268.5 -108t-272.5 104 t-88 252zM737 1638q37 98 97.5 156.5t138.5 58.5q33 0 52 -6t30.5 -9t35 -11t35.5 -12q32 -14 93 -37l129 86l112 -88q-37 -98 -97 -156.5t-131 -58.5t-253 75l-129 -86zM936 586h367l-183 487z" />
<glyph unicode="&#xc4;" horiz-adv-x="1837" d="M-92 934q0 233 233.5 366.5t747.5 133.5h561v-246h-121l373 -942h135v-246h-526v246h121l-43 114h-537l-43 -114h123v-246h-526v246h133l370 942h-20q-412 0 -568.5 -57.5t-156.5 -196.5q0 -111 104 -111q96 0 97 131h256q0 -160 -84 -268t-268.5 -108t-272.5 104 t-88 252zM764 1781.5q0 63.5 42 108.5t102.5 45t98 -43t37.5 -105.5t-41.5 -107.5t-102 -45t-98.5 42t-38 105.5zM936 586h367l-183 487zM1221 1781.5q0 63.5 42 108.5t102 45t98 -43t38 -105.5t-42 -107.5t-102.5 -45t-98 42t-37.5 105.5z" />
<glyph unicode="&#xc5;" horiz-adv-x="1837" d="M-92 934q0 233 233.5 366.5t747.5 133.5h561v-246h-121l373 -942h135v-246h-526v246h121l-43 114h-537l-43 -114h123v-246h-526v246h133l370 942h-20q-412 0 -568.5 -57.5t-156.5 -196.5q0 -111 104 -111q96 0 97 131h256q0 -159 -84 -267.5t-268.5 -108.5t-272.5 104 t-88 252zM840 1728.5q0 112.5 84 195.5t200.5 83t197.5 -82t81 -197.5t-81 -194.5t-198.5 -79t-200.5 81t-83 193.5zM936 586h367l-183 487zM1024 1730q0 -42 27.5 -72t73.5 -30t74 30t28 72t-29 72.5t-74 30.5t-72.5 -30.5t-27.5 -72.5z" />
<glyph unicode="&#xc6;" horiz-adv-x="2220" d="M-92 934q0 233 219 366.5t700 133.5h1309v-420h-235v174h-451v-357h160v123h235v-491h-235v123h-160v-340h469v174h235v-420h-1077v246h107v114h-398l-55 -114h57v-246h-526v246h197l461 942h-93q-377 0 -520 -57.5t-143 -196.5q0 -111 104 -111q96 0 97 131h256 q0 -157 -84 -266.5t-268.5 -109.5t-272.5 104t-88 252zM897 586h287v585z" />
<glyph unicode="&#xc7;" horiz-adv-x="1148" d="M-92 730q0 308 184 516t502 208q199 0 347.5 -123t148.5 -317q0 -147 -88.5 -252t-272.5 -105t-268 110t-84 267h256q0 -131 96 -131q74 0 74 111q0 82 -63.5 133t-145.5 51q-186 0 -298 -136t-112 -345t112 -345t310.5 -136t366.5 176l155 -195q-160 -197 -421 -229 l-54 -33q150 -39 150 -223q0 -133 -81 -198.5t-204 -65.5t-223 45l70 190q39 -20 128 -20t89 57q0 63 -78 63q-43 0 -80 -16l-43 141l92 62q-264 37 -414.5 234.5t-150.5 505.5z" />
<glyph unicode="&#xc8;" horiz-adv-x="1720" d="M-92 934q0 233 212 366.5t677 133.5h839v-420h-235v174h-451v-357h160v123h236v-491h-236v123h-160v-340h469v174h236v-420h-1170v246h199v940q-291 -8 -405.5 -66.5t-114.5 -177.5t104 -119q96 0 97 131h256q0 -157 -84 -266.5t-268.5 -109.5t-272.5 104t-88 252z M780 1880l228 154l206 -375l-172 -103z" />
<glyph unicode="&#xc9;" horiz-adv-x="1720" d="M-92 934q0 233 212 366.5t677 133.5h839v-420h-235v174h-451v-357h160v123h236v-491h-236v123h-160v-340h469v174h236v-420h-1170v246h199v940q-291 -8 -405.5 -66.5t-114.5 -177.5t104 -119q96 0 97 131h256q0 -157 -84 -266.5t-268.5 -109.5t-272.5 104t-88 252z M848 1659l207 375l227 -154l-262 -324z" />
<glyph unicode="&#xca;" horiz-adv-x="1720" d="M-92 934q0 233 212 366.5t677 133.5h839v-420h-235v174h-451v-357h160v123h236v-491h-236v123h-160v-340h469v174h236v-420h-1170v246h199v940q-291 -8 -405.5 -66.5t-114.5 -177.5t104 -119q96 0 97 131h256q0 -157 -84 -266.5t-268.5 -109.5t-272.5 104t-88 252z M713 1638l266 301h168l266 -301l-127 -102l-223 184l-223 -184z" />
<glyph unicode="&#xcb;" horiz-adv-x="1720" d="M-92 934q0 233 212 366.5t677 133.5h839v-420h-235v174h-451v-357h160v123h236v-491h-236v123h-160v-340h469v174h236v-420h-1170v246h199v940q-291 -8 -405.5 -66.5t-114.5 -177.5t104 -119q96 0 97 131h256q0 -157 -84 -266.5t-268.5 -109.5t-272.5 104t-88 252z M737 1781.5q0 63.5 42 108.5t102.5 45t98.5 -43t38 -105.5t-42 -107.5t-102.5 -45t-98.5 42t-38 105.5zM1194 1781.5q0 63.5 42 108.5t102.5 45t98.5 -43t38 -105.5t-42 -107.5t-102.5 -45t-98.5 42t-38 105.5z" />
<glyph unicode="&#xcc;" horiz-adv-x="1198" d="M-92 934q0 233 212 366.5t677 133.5h352v-246h-199v-942h199v-246h-645v246h180v940q-291 -8 -405.5 -66.5t-114.5 -177.5t104 -119q96 0 97 131h256q0 -157 -84 -266.5t-268.5 -109.5t-272.5 104t-88 252zM528 1880l228 154l207 -375l-172 -103z" />
<glyph unicode="&#xcd;" horiz-adv-x="1202" d="M-92 934q0 233 212 366.5t677 133.5h352v-246h-199v-942h199v-246h-645v246h180v940q-291 -8 -405.5 -66.5t-114.5 -177.5t104 -119q96 0 97 131h256q0 -157 -84 -266.5t-268.5 -109.5t-272.5 104t-88 252zM655 1659l207 375l228 -154l-263 -324z" />
<glyph unicode="&#xce;" horiz-adv-x="1198" d="M-92 934q0 233 212 366.5t677 133.5h352v-246h-199v-942h199v-246h-645v246h180v940q-291 -8 -405.5 -66.5t-114.5 -177.5t104 -119q96 0 97 131h256q0 -157 -84 -266.5t-268.5 -109.5t-272.5 104t-88 252zM477 1638l266 301h168l267 -301l-127 -102l-224 184l-223 -184z " />
<glyph unicode="&#xcf;" horiz-adv-x="1200" d="M-92 934q0 233 212 366.5t677 133.5h352v-246h-199v-942h199v-246h-645v246h180v940q-291 -8 -405.5 -66.5t-114.5 -177.5t104 -119q96 0 97 131h256q0 -157 -84 -266.5t-268.5 -109.5t-272.5 104t-88 252zM428 1781.5q0 63.5 42 108.5t102.5 45t98.5 -43t38 -105.5 t-42 -107.5t-102.5 -45t-98.5 42t-38 105.5zM885 1781.5q0 63.5 42 108.5t102.5 45t98 -43t37.5 -105.5t-42 -107.5t-102 -45t-98 42t-38 105.5z" />
<glyph unicode="&#xd0;" horiz-adv-x="1896" d="M-92 934q0 233 212 366.5t677 133.5h92q436 0 666.5 -210t230.5 -569q0 -350 -209 -536q-157 -139 -442 -139l-420 20h-211v246h180v940q-291 -8 -405.5 -66.5t-114.5 -177.5t104 -119q96 0 97 131h256q0 -158 -84 -267t-268.5 -109t-272.5 104t-88 252zM950 238 q139 -12 215 -12.5t153 37.5t116 102q76 121 75 290q0 254 -142 393.5t-417 139.5v-406h207v-209h-207v-335z" />
<glyph unicode="&#xd1;" horiz-adv-x="2035" d="M-92 934q0 233 212 366.5t677 133.5h157l596 -957v711h-178v246h643v-246h-198v-1188h-252l-615 981v-735h178v-246h-643v246h199v940q-291 -8 -405.5 -66.5t-114.5 -177.5t104 -119q96 0 97 131h256q0 -157 -84 -266.5t-268.5 -109.5t-272.5 104t-88 252zM856 1638 q37 98 97.5 156.5t138.5 58.5q33 0 52 -6t30.5 -9t35 -11t35.5 -12q31 -14 92 -37l129 86l113 -88q-37 -98 -97.5 -156.5t-131 -58.5t-252.5 75l-129 -86z" />
<glyph unicode="&#xd2;" horiz-adv-x="1515" d="M72 716.5q0 321.5 186 529.5t500.5 208t500 -206t185.5 -529.5t-184.5 -531t-502 -207.5t-501.5 207.5t-184 529zM348 717q0 -213 111.5 -352.5t298 -139.5t298 139.5t111.5 350.5t-111.5 347t-297.5 136q-82 0 -145.5 -51t-63.5 -133q0 -111 74 -111q96 0 96 131h256 q0 -158 -84 -267.5t-270 -109.5q-86 0 -155 52.5t-108 117.5q-10 -37 -10 -110zM518 1880l227 154l207 -375l-172 -103z" />
<glyph unicode="&#xd3;" horiz-adv-x="1515" d="M72 716.5q0 321.5 186 529.5t500.5 208t500 -206t185.5 -529.5t-184.5 -531t-502 -207.5t-501.5 207.5t-184 529zM348 717q0 -213 111.5 -352.5t298 -139.5t298 139.5t111.5 350.5t-111.5 347t-297.5 136q-82 0 -145.5 -51t-63.5 -133q0 -111 74 -111q96 0 96 131h256 q0 -158 -84 -267.5t-270 -109.5q-86 0 -155 52.5t-108 117.5q-10 -37 -10 -110zM637 1659l207 375l227 -154l-262 -324z" />
<glyph unicode="&#xd4;" horiz-adv-x="1515" d="M72 716.5q0 321.5 186 529.5t500.5 208t500 -206t185.5 -529.5t-184.5 -531t-502 -207.5t-501.5 207.5t-184 529zM348 717q0 -213 111.5 -352.5t298 -139.5t298 139.5t111.5 350.5t-111.5 347t-297.5 136q-82 0 -145.5 -51t-63.5 -133q0 -111 74 -111q96 0 96 131h256 q0 -158 -84 -267.5t-270 -109.5q-86 0 -155 52.5t-108 117.5q-10 -37 -10 -110zM393 1638l266 301h168l267 -301l-127 -102l-224 184l-223 -184z" />
<glyph unicode="&#xd5;" horiz-adv-x="1515" d="M72 716.5q0 321.5 186 529.5t500.5 208t500 -206t185.5 -529.5t-184.5 -531t-502 -207.5t-501.5 207.5t-184 529zM348 717q0 -213 111.5 -352.5t298 -139.5t298 139.5t111.5 350.5t-111.5 347t-297.5 136q-82 0 -145.5 -51t-63.5 -133q0 -111 74 -111q96 0 96 131h256 q0 -158 -84 -267.5t-270 -109.5q-86 0 -155 52.5t-108 117.5q-10 -37 -10 -110zM418 1638q37 98 97 156.5t138 58.5q33 0 52.5 -6t31 -9t35 -11t35.5 -12q31 -14 92 -37l129 86l113 -88q-37 -98 -97.5 -156.5t-131 -58.5t-253.5 75l-129 -86z" />
<glyph unicode="&#xd6;" horiz-adv-x="1515" d="M72 716.5q0 321.5 186 529.5t500.5 208t500 -206t185.5 -529.5t-184.5 -531t-502 -207.5t-501.5 207.5t-184 529zM348 717q0 -213 111.5 -352.5t298 -139.5t298 139.5t111.5 350.5t-111.5 347t-297.5 136q-82 0 -145.5 -51t-63.5 -133q0 -111 74 -111q96 0 96 131h256 q0 -158 -84 -267.5t-270 -109.5q-86 0 -155 52.5t-108 117.5q-10 -37 -10 -110zM432 1781.5q0 63.5 42 108.5t102.5 45t98.5 -43t38 -105.5t-42 -107.5t-102.5 -45t-98.5 42t-38 105.5zM889 1781.5q0 63.5 42 108.5t102.5 45t98 -43t37.5 -105.5t-42 -107.5t-102 -45t-98 42 t-38 105.5z" />
<glyph unicode="&#xd7;" horiz-adv-x="1175" d="M190 367l228 227l-225 225l169 168l224 -223l227 225l172 -172l-225 -227l223 -223l-168 -170l-225 225l-228 -227z" />
<glyph unicode="&#xd8;" horiz-adv-x="1515" d="M72 717q0 322 186 529.5t500.5 207.5t500 -206t185.5 -529.5t-184.5 -531t-501.5 -207.5q-96 0 -201 24l-27 -65h-245l67 161q-135 98 -207.5 259t-72.5 358zM348 717q0 -213 113 -352l121 294q-139 25 -224 168q-10 -36 -10 -110zM549 1014q0 -111 74 -111q96 0 96 131 h256q0 -203 -119 -301l-203 -495q49 -12 105 -13q186 0 297.5 139.5t111.5 350.5t-111.5 347t-297.5 136q-82 0 -145.5 -51t-63.5 -133z" />
<glyph unicode="&#xd9;" horiz-adv-x="2043" d="M-92 934q0 233 212 366.5t677 133.5h331v-246h-178v-707q0 -104 87 -174.5t225.5 -70.5t228.5 70.5t90 174.5v707h-178v246h643v-246h-199v-707q0 -213 -158.5 -357t-426 -144t-423 143t-155.5 358v705q-291 -8 -405.5 -66.5t-114.5 -177.5t104 -119q96 0 97 131h256 q0 -157 -84 -266.5t-268.5 -109.5t-272.5 104t-88 252zM840 1880l227 154l207 -375l-172 -103z" />
<glyph unicode="&#xda;" horiz-adv-x="2043" d="M-92 934q0 233 212 366.5t677 133.5h331v-246h-178v-707q0 -104 87 -174.5t225.5 -70.5t228.5 70.5t90 174.5v707h-178v246h643v-246h-199v-707q0 -213 -158.5 -357t-426 -144t-423 143t-155.5 358v705q-291 -8 -405.5 -66.5t-114.5 -177.5t104 -119q96 0 97 131h256 q0 -157 -84 -266.5t-268.5 -109.5t-272.5 104t-88 252zM1047 1659l206 375l228 -154l-262 -324z" />
<glyph unicode="&#xdb;" horiz-adv-x="2043" d="M-92 934q0 233 212 366.5t677 133.5h331v-246h-178v-707q0 -104 87 -174.5t225.5 -70.5t228.5 70.5t90 174.5v707h-178v246h643v-246h-199v-707q0 -213 -158.5 -357t-426 -144t-423 143t-155.5 358v705q-291 -8 -405.5 -66.5t-114.5 -177.5t104 -119q96 0 97 131h256 q0 -157 -84 -266.5t-268.5 -109.5t-272.5 104t-88 252zM924 1638l266 301h168l266 -301l-127 -102l-223 184l-223 -184z" />
<glyph unicode="&#xdc;" horiz-adv-x="2043" d="M-92 934q0 233 212 366.5t677 133.5h331v-246h-178v-707q0 -104 87 -174.5t225.5 -70.5t228.5 70.5t90 174.5v707h-178v246h643v-246h-199v-707q0 -213 -158.5 -357t-426 -144t-423 143t-155.5 358v705q-291 -8 -405.5 -66.5t-114.5 -177.5t104 -119q96 0 97 131h256 q0 -157 -84 -266.5t-268.5 -109.5t-272.5 104t-88 252zM901 1781.5q0 63.5 42 108.5t102.5 45t98.5 -43t38 -105.5t-42 -107.5t-102.5 -45t-98.5 42t-38 105.5zM1358 1781.5q0 63.5 42 108.5t102.5 45t98 -43t37.5 -105.5t-42 -107.5t-102 -45t-98 42t-38 105.5z" />
<glyph unicode="&#xdd;" horiz-adv-x="1646" d="M-92 934q0 233 212 366.5t677 133.5h188v-246h-82l154 -340l153 340h-82v246h517v-246h-144l-311 -629v-313h199v-246h-664v246h199v313l-310 625q-250 -14 -350 -71.5t-100 -173.5t104 -116q96 0 97 131h256q0 -157 -84 -266.5t-268.5 -109.5t-272.5 104t-88 252z M860 1659l207 375l227 -154l-262 -324z" />
<glyph unicode="&#xde;" horiz-adv-x="1230" d="M37 0v225h160v965h-158v225h602v-225h-178v-82q205 14 225 14q240 0 365 -114.5t125 -293.5t-125 -300t-365 -121q-137 0 -225 4v-72h178v-225h-604zM463 543q84 -4 256 -4q88 0 140 49t52 128t-52 120t-126 41t-270 -15v-319z" />
<glyph unicode="&#xdf;" d="M39 0v225h158v475h-146v222h146v125q0 94 27.5 175t68.5 130t126 87t202 38q199 0 294 -111t95 -242q0 -63 -34 -125.5t-73 -102.5t-72.5 -85t-33.5 -78t57 -82t125 -95t125 -117.5t57 -145.5q0 -135 -99 -227.5t-275.5 -92.5t-299.5 52l54 247q106 -53 230 -53t124 80 q0 53 -57.5 110.5t-125 99.5t-125 103.5t-57.5 128t53.5 136t106.5 132t53 110.5t-30.5 80t-104 32t-109.5 -52.5t-36 -129.5v-1049h-424z" />
<glyph unicode="&#xe0;" horiz-adv-x="1130" d="M41 283.5q0 144.5 114.5 245t338.5 100.5h161v73q0 96 -120.5 96.5t-215.5 -26.5v-117h-235v306q100 39 234.5 61t224.5 22q178 0 278.5 -93t100.5 -249v-487h168v-178q-88 -47 -222 -47q-213 0 -213 143q-127 -153 -282.5 -153t-243.5 79.5t-88 224zM254 1470l227 154 l207 -375l-172 -102zM307 280.5q0 -55.5 84 -55.5q141 0 264 168v8h-163q-94 0 -139.5 -32.5t-45.5 -88z" />
<glyph unicode="&#xe1;" horiz-adv-x="1130" d="M41 283.5q0 144.5 114.5 245t338.5 100.5h161v73q0 96 -120.5 96.5t-215.5 -26.5v-117h-235v306q100 39 234.5 61t224.5 22q178 0 278.5 -93t100.5 -249v-487h168v-178q-88 -47 -222 -47q-213 0 -213 143q-127 -153 -282.5 -153t-243.5 79.5t-88 224zM307 280.5 q0 -55.5 84 -55.5q141 0 264 168v8h-163q-94 0 -139.5 -32.5t-45.5 -88zM414 1249l207 375l227 -154l-262 -323z" />
<glyph unicode="&#xe2;" horiz-adv-x="1130" d="M41 283.5q0 144.5 114.5 245t338.5 100.5h161v73q0 96 -120.5 96.5t-215.5 -26.5v-117h-235v306q100 39 234.5 61t224.5 22q178 0 278.5 -93t100.5 -249v-487h168v-178q-88 -47 -222 -47q-213 0 -213 143q-127 -153 -282.5 -153t-243.5 79.5t-88 224zM170 1229l266 301 h168l266 -301l-127 -103l-223 185l-223 -185zM307 280.5q0 -55.5 84 -55.5q141 0 264 168v8h-163q-94 0 -139.5 -32.5t-45.5 -88z" />
<glyph unicode="&#xe3;" horiz-adv-x="1130" d="M41 283.5q0 144.5 114.5 245t338.5 100.5h161v73q0 96 -120.5 96.5t-215.5 -26.5v-117h-235v306q100 39 234.5 61t224.5 22q178 0 278.5 -93t100.5 -249v-487h168v-178q-88 -47 -222 -47q-213 0 -213 143q-127 -153 -282.5 -153t-243.5 79.5t-88 224zM164 1229 q37 98 97.5 156.5t137.5 58.5q33 0 52.5 -6t31 -9.5t35 -11.5t35.5 -12q31 -14 92 -37l129 86l113 -88q-37 -98 -97.5 -156.5t-131 -58.5t-252.5 76l-130 -86zM307 280.5q0 -55.5 84 -55.5q141 0 264 168v8h-163q-94 0 -139.5 -32.5t-45.5 -88z" />
<glyph unicode="&#xe4;" horiz-adv-x="1130" d="M41 283.5q0 144.5 114.5 245t338.5 100.5h161v73q0 96 -120.5 96.5t-215.5 -26.5v-117h-235v306q100 39 234.5 61t224.5 22q178 0 278.5 -93t100.5 -249v-487h168v-178q-88 -47 -222 -47q-213 0 -213 143q-127 -153 -282.5 -153t-243.5 79.5t-88 224zM147 1372.5 q0 63.5 42 108.5t102.5 45t98.5 -43t38 -105.5t-42 -107.5t-102.5 -45t-98.5 42t-38 105.5zM307 280.5q0 -55.5 84 -55.5q141 0 264 168v8h-163q-94 0 -139.5 -32.5t-45.5 -88zM604 1372.5q0 63.5 42 108.5t102.5 45t98.5 -43t38 -105.5t-42 -107.5t-102.5 -45t-98.5 42 t-38 105.5z" />
<glyph unicode="&#xe5;" horiz-adv-x="1130" d="M41 283.5q0 144.5 114.5 245t338.5 100.5h161v73q0 96 -120.5 96.5t-215.5 -26.5v-117h-235v306q100 39 234.5 61t224.5 22q178 0 278.5 -93t100.5 -249v-487h168v-178q-88 -47 -222 -47q-213 0 -213 143q-127 -153 -282.5 -153t-243.5 79.5t-88 224zM258 1349.5 q0 112.5 84 195.5t200.5 83t197.5 -82t81 -197.5t-81 -194.5t-198.5 -79t-200.5 81t-83 193.5zM307 280.5q0 -55.5 84 -55.5q141 0 264 168v8h-163q-94 0 -139.5 -32.5t-45.5 -88zM442 1351q0 -42 28 -72t74 -30t73.5 30t27.5 72t-28.5 72.5t-73.5 30.5t-73 -30.5t-28 -72.5 z" />
<glyph unicode="&#xe6;" horiz-adv-x="1718" d="M61 283.5q0 144.5 115 245t338 100.5h162v73q0 96 -121 96.5t-215 -26.5v-117h-236v306q100 39 234.5 61t224.5 22q172 0 275 -114q131 115 342 114.5t329.5 -148t118.5 -376.5v-108h-686v-39q16 -68 76.5 -108t138.5 -40t136.5 12.5t82 22.5t70.5 37l49 27l107 -207 q-168 -137 -412 -137t-379 141q-217 -141 -387 -141t-266.5 79.5t-96.5 224zM289 307q-1 -82 114 -82q80 0 158 34t115 89v53h-203q-92 0 -138 -26.5t-46 -67.5zM944 618h418q-8 82 -56.5 131.5t-137.5 49.5t-147 -50.5t-77 -130.5z" />
<glyph unicode="&#xe7;" horiz-adv-x="1013" d="M72 522q0 221 132 371.5t352 150.5t378 -83v-336h-236v157q-55 16 -125 17q-111 0 -173 -80t-62 -207t62.5 -207t157.5 -80t159.5 18.5t90.5 34t69 46.5l106 -207q-88 -78 -223 -113l-80 -49q150 -39 149 -223q0 -133 -80.5 -198.5t-203.5 -65.5t-223 45l69 190 q39 -20 128 -20t89 57q0 63 -78 63q-43 0 -79 -16l-43 141l86 58q-201 24 -311.5 169.5t-110.5 366.5z" />
<glyph unicode="&#xe8;" horiz-adv-x="1091" d="M72 512q0 231 132 381.5t360.5 150.5t347 -147.5t118.5 -376.5v-108h-692q6 -82 68.5 -134.5t146.5 -52.5t142.5 12.5t82 22.5t70.5 37l49 27l107 -207q-168 -137 -418 -137t-382 150.5t-132 381.5zM344 1470l227 154l207 -375l-172 -102zM346 618h418q-8 82 -56.5 131.5 t-137.5 49.5t-147 -50.5t-77 -130.5z" />
<glyph unicode="&#xe9;" horiz-adv-x="1091" d="M72 512q0 231 132 381.5t360.5 150.5t347 -147.5t118.5 -376.5v-108h-692q6 -82 68.5 -134.5t146.5 -52.5t142.5 12.5t82 22.5t70.5 37l49 27l107 -207q-168 -137 -418 -137t-382 150.5t-132 381.5zM346 618h418q-8 82 -56.5 131.5t-137.5 49.5t-147 -50.5t-77 -130.5z M440 1249l207 375l227 -154l-262 -323z" />
<glyph unicode="&#xea;" horiz-adv-x="1091" d="M72 512q0 231 132 381.5t360.5 150.5t347 -147.5t118.5 -376.5v-108h-692q6 -82 68.5 -134.5t146.5 -52.5t142.5 12.5t82 22.5t70.5 37l49 27l107 -207q-168 -137 -418 -137t-382 150.5t-132 381.5zM219 1229l266 301h168l267 -301l-127 -103l-224 185l-223 -185z M346 618h418q-8 82 -56.5 131.5t-137.5 49.5t-147 -50.5t-77 -130.5z" />
<glyph unicode="&#xeb;" horiz-adv-x="1091" d="M72 512q0 231 132 381.5t360.5 150.5t347 -147.5t118.5 -376.5v-108h-692q6 -82 68.5 -134.5t146.5 -52.5t142.5 12.5t82 22.5t70.5 37l49 27l107 -207q-168 -137 -418 -137t-382 150.5t-132 381.5zM197 1349.5q0 63.5 42 108.5t102 45t98 -43t38 -105.5t-42 -107.5 t-102.5 -45t-98 42t-37.5 105.5zM346 618h418q-8 82 -56.5 131.5t-137.5 49.5t-147 -50.5t-77 -130.5zM653 1349.5q0 63.5 42 108.5t102.5 45t98.5 -43t38 -105.5t-42 -107.5t-102.5 -45t-98.5 42t-38 105.5z" />
<glyph unicode="&#xec;" horiz-adv-x="737" d="M61 1470l228 154l207 -375l-172 -102zM82 0v225h160v574h-158v225h424v-799h178v-225h-604z" />
<glyph unicode="&#xed;" horiz-adv-x="735" d="M82 0v225h160v574h-158v225h424v-799h178v-225h-604zM221 1249l207 375l227 -154l-262 -323z" />
<glyph unicode="&#xee;" horiz-adv-x="741" d="M-6 1229l266 301h168l266 -301l-127 -103l-223 185l-223 -185zM86 0v225h160v574h-158v225h424v-799h178v-225h-604z" />
<glyph unicode="&#xef;" horiz-adv-x="739" d="M-25 1372.5q0 63.5 42 108.5t102.5 45t98.5 -43t38 -105.5t-42 -107.5t-102.5 -45t-98.5 42t-38 105.5zM84 0v225h160v574h-158v225h424v-799h178v-225h-604zM432 1372.5q0 63.5 42 108.5t102.5 45t98.5 -43t38 -105.5t-42 -107.5t-102.5 -45t-98.5 42t-38 105.5z" />
<glyph unicode="&#xf0;" horiz-adv-x="1099" d="M86 513q0 212 146.5 332t402.5 120q57 0 113 -9q-20 92 -103 174l-121 -110l-141 147l94 84q-78 39 -160 60l64 211q160 -39 276 -107l131 119l140 -148l-111 -100q225 -235 225 -645q0 -279 -114.5 -444.5t-355 -165.5t-363.5 135t-123 347zM354 496q0 -92 48.5 -157 t154.5 -65q221 0 221 316q0 82 -10 117q-70 14 -129 14q-285 0 -285 -225z" />
<glyph unicode="&#xf1;" horiz-adv-x="1310" d="M41 0v225h158v574h-158v225h362l31 -100q193 121 348 120q193 0 266.5 -112.5t73.5 -310.5v-406h168v-178q-88 -47 -213 -47t-173 55t-48 180v396q0 90 -24.5 134t-114.5 44t-252 -123v-451h178v-225h-602zM305 1229q37 98 97.5 156.5t138.5 58.5q33 0 52 -6t30.5 -9.5 t35 -11.5t35.5 -12q31 -14 92 -37l129 86l113 -88q-37 -98 -97.5 -156.5t-131 -58.5t-252.5 76l-129 -86z" />
<glyph unicode="&#xf2;" d="M72 512q0 231 137 381.5t385 150.5t385 -150.5t137 -381.5t-137 -381.5t-385 -150.5t-385 150.5t-137 381.5zM317 1470l228 154l207 -375l-172 -102zM338 512q0 -125 67.5 -206t188.5 -81t188.5 81t67.5 206t-67.5 206t-188.5 81t-188.5 -81t-67.5 -206z" />
<glyph unicode="&#xf3;" d="M72 512q0 231 137 381.5t385 150.5t385 -150.5t137 -381.5t-137 -381.5t-385 -150.5t-385 150.5t-137 381.5zM338 512q0 -125 67.5 -206t188.5 -81t188.5 81t67.5 206t-67.5 206t-188.5 81t-188.5 -81t-67.5 -206zM492 1249l206 375l228 -154l-262 -323z" />
<glyph unicode="&#xf4;" d="M72 512q0 231 137 381.5t385 150.5t385 -150.5t137 -381.5t-137 -381.5t-385 -150.5t-385 150.5t-137 381.5zM244 1229l266 301h168l266 -301l-127 -103l-223 185l-223 -185zM338 512q0 -125 67.5 -206t188.5 -81t188.5 81t67.5 206t-67.5 206t-188.5 81t-188.5 -81 t-67.5 -206z" />
<glyph unicode="&#xf5;" d="M72 512q0 231 137 381.5t385 150.5t385 -150.5t137 -381.5t-137 -381.5t-385 -150.5t-385 150.5t-137 381.5zM229 1229q37 98 97.5 156.5t138.5 58.5q33 0 52.5 -6t30.5 -9.5t34.5 -11.5t35.5 -12q32 -14 93 -37l129 86l112 -88q-37 -98 -97 -156.5t-131 -58.5t-253 76 l-129 -86zM338 512q0 -125 67.5 -206t188.5 -81t188.5 81t67.5 206t-67.5 206t-188.5 81t-188.5 -81t-67.5 -206z" />
<glyph unicode="&#xf6;" d="M72 512q0 231 137 381.5t385 150.5t385 -150.5t137 -381.5t-137 -381.5t-385 -150.5t-385 150.5t-137 381.5zM225 1372.5q0 63.5 42 108.5t102.5 45t98.5 -43t38 -105.5t-42 -107.5t-102.5 -45t-98.5 42t-38 105.5zM338 512q0 -125 67.5 -206t188.5 -81t188.5 81 t67.5 206t-67.5 206t-188.5 81t-188.5 -81t-67.5 -206zM682 1372.5q0 63.5 42 108.5t102.5 45t98.5 -43t38 -105.5t-42 -107.5t-102.5 -45t-98.5 42t-38 105.5z" />
<glyph unicode="&#xf7;" horiz-adv-x="880" d="M123 580v239h635v-239h-635zM301 341q0 62 44 106.5t106.5 44.5t106.5 -44.5t44 -106.5t-44 -106.5t-106.5 -44.5t-106.5 44.5t-44 106.5zM301 1072.5q0 62.5 44 106.5t106.5 44t106.5 -44t44 -106.5t-44 -106.5t-106.5 -44t-106.5 44t-44 106.5z" />
<glyph unicode="&#xf8;" horiz-adv-x="1275" d="M70 0l114 156q-113 139 -112.5 363t137.5 374.5t385 150.5q117 0 217 -38l14 18h289l-115 -156q117 -141 117 -364t-137 -373.5t-385 -150.5q-115 0 -223 40l-15 -20h-286zM338 512q0 -68 18 -123l297 404q-27 6 -59 6q-121 0 -188.5 -81t-67.5 -206zM528 231 q31 -6 66 -6q121 0 188.5 81t67.5 206q0 68 -23 125z" />
<glyph unicode="&#xf9;" horiz-adv-x="1290" d="M20 809v215h424v-621q0 -90 26 -135t112 -45t254 125v451h-127v225h393v-809h168v-178q-88 -47 -230.5 -47t-183.5 104q-188 -117 -338 -117q-193 0 -266.5 114t-73.5 312v406h-158zM385 1470l227 154l207 -375l-172 -102z" />
<glyph unicode="&#xfa;" horiz-adv-x="1290" d="M20 809v215h424v-621q0 -90 26 -135t112 -45t254 125v451h-127v225h393v-809h168v-178q-88 -47 -230.5 -47t-183.5 104q-188 -117 -338 -117q-193 0 -266.5 114t-73.5 312v406h-158zM504 1249l207 375l227 -154l-262 -323z" />
<glyph unicode="&#xfb;" horiz-adv-x="1290" d="M20 809v215h424v-621q0 -90 26 -135t112 -45t254 125v451h-127v225h393v-809h168v-178q-88 -47 -230.5 -47t-183.5 104q-188 -117 -338 -117q-193 0 -266.5 114t-73.5 312v406h-158zM287 1229l266 301h168l266 -301l-127 -103l-223 185l-223 -185z" />
<glyph unicode="&#xfc;" horiz-adv-x="1290" d="M20 809v215h424v-621q0 -90 26 -135t112 -45t254 125v451h-127v225h393v-809h168v-178q-88 -47 -230.5 -47t-183.5 104q-188 -117 -338 -117q-193 0 -266.5 114t-73.5 312v406h-158zM283 1372.5q0 63.5 42 108.5t102 45t98 -43t38 -105.5t-42 -107.5t-102.5 -45t-98 42 t-37.5 105.5zM739 1372.5q0 63.5 42 108.5t102.5 45t98.5 -43t38 -105.5t-42 -107.5t-102.5 -45t-98.5 42t-38 105.5z" />
<glyph unicode="&#xfd;" horiz-adv-x="1124" d="M20 799v225h488v-225h-55l151 -457l133 457h-73v225h471v-225h-127l-236 -799q-135 -463 -496 -463q-111 0 -235 37l72 258q94 -27 163 -27q127 0 205 164l-336 830h-125zM463 1249l207 375l227 -154l-262 -323z" />
<glyph unicode="&#xfe;" horiz-adv-x="1191" d="M20 -215h158v1423h-158v226h424v-523q94 133 242 133q209 0 321.5 -148t112.5 -380.5t-123 -384t-350 -151.5q-94 0 -203 40v-235h158v-225h-582v225zM444 279q70 -53 171.5 -53.5t170 76.5t68.5 205t-52 210t-144.5 82t-149.5 -67.5t-64 -168.5v-284z" />
<glyph unicode="&#xff;" horiz-adv-x="1124" d="M20 799v225h488v-225h-55l151 -457l133 457h-73v225h471v-225h-127l-236 -799q-135 -463 -496 -463q-111 0 -235 37l72 258q94 -27 163 -27q127 0 205 164l-336 830h-125zM242 1372.5q0 63.5 42 108.5t102 45t98 -43t38 -105.5t-42 -107.5t-102.5 -45t-98 42t-37.5 105.5 zM698 1372.5q0 63.5 42 108.5t102.5 45t98.5 -43t38 -105.5t-42 -107.5t-102.5 -45t-98.5 42t-38 105.5z" />
<glyph unicode="&#x152;" horiz-adv-x="2039" d="M-92 716.5q0 321.5 186.5 529.5t499.5 208q240 0 410 -125v105h952v-420h-236v174h-450v-330l4 -27h156v123h235v-491h-235v123h-158q-2 -4 -2 -13v-327h469v174h235v-420h-970v102q-168 -123 -410 -122q-317 0 -501.5 207.5t-184.5 529zM184 717q0 -213 112 -352.5 t298 -139.5t298 139.5t112 352.5v24q-2 86 -29 166q-45 133 -144.5 212t-236.5 79q-82 0 -145.5 -51t-63.5 -133q0 -111 74 -111q96 0 96 131h256q0 -160 -84 -268.5t-270 -108.5q-84 0 -156 53.5t-106 116.5q-10 -25 -11 -110z" />
<glyph unicode="&#x153;" horiz-adv-x="1900" d="M72 512q0 231 137 381.5t390 150.5t396 -170q137 170 372 170t353.5 -147.5t118.5 -376.5v-108h-692q6 -82 68.5 -134.5t146.5 -52.5t142.5 12.5t82 22.5t72.5 37l47 27l106 -207q-168 -137 -423.5 -137t-393.5 170q-143 -170 -396 -170t-390 150.5t-137 381.5zM338 512 q0 -125 67.5 -206t188.5 -81t188.5 81t67.5 206t-67.5 206t-188.5 81t-188.5 -81t-67.5 -206zM1155 618h418q-8 82 -56.5 131.5t-137.5 49.5t-147 -50.5t-77 -130.5z" />
<glyph unicode="&#x2c6;" horiz-adv-x="1062" d="M178 1638l266 301h168l267 -301l-127 -102l-224 184l-223 -184z" />
<glyph unicode="&#x2dc;" horiz-adv-x="1128" d="M223 1638q37 98 97.5 156.5t138.5 58.5q33 0 52 -6t30.5 -9t35 -11t35.5 -12q32 -14 93 -37l129 86l112 -88q-37 -98 -97.5 -156.5t-131 -58.5t-252.5 75l-129 -86z" />
<glyph unicode="&#x2000;" horiz-adv-x="1017" />
<glyph unicode="&#x2001;" horiz-adv-x="2034" />
<glyph unicode="&#x2002;" horiz-adv-x="1017" />
<glyph unicode="&#x2003;" horiz-adv-x="2034" />
<glyph unicode="&#x2004;" horiz-adv-x="678" />
<glyph unicode="&#x2005;" horiz-adv-x="508" />
<glyph unicode="&#x2006;" horiz-adv-x="339" />
<glyph unicode="&#x2007;" horiz-adv-x="339" />
<glyph unicode="&#x2008;" horiz-adv-x="254" />
<glyph unicode="&#x2009;" horiz-adv-x="406" />
<glyph unicode="&#x200a;" horiz-adv-x="113" />
<glyph unicode="&#x2010;" horiz-adv-x="880" d="M123 473v240h635v-240h-635z" />
<glyph unicode="&#x2011;" horiz-adv-x="880" d="M123 473v240h635v-240h-635z" />
<glyph unicode="&#x2012;" horiz-adv-x="880" d="M123 473v240h635v-240h-635z" />
<glyph unicode="&#x2013;" horiz-adv-x="1316" d="M61 473v240h1194v-240h-1194z" />
<glyph unicode="&#x2014;" horiz-adv-x="1380" d="M0 473v240h1380v-240h-1380z" />
<glyph unicode="&#x2018;" horiz-adv-x="581" d="M100 1396q0 83 56.5 212t140.5 217l117 -72q-100 -125 -111 -235q49 -19 76 -64t27 -95t-43.5 -90t-108 -40t-109.5 42t-45 125z" />
<glyph unicode="&#x2019;" horiz-adv-x="581" d="M100 930q100 125 111 235q-49 19 -75.5 64t-26.5 95t43 90t107.5 40t109.5 -42t45 -125t-56.5 -212t-140.5 -217z" />
<glyph unicode="&#x201a;" horiz-adv-x="581" d="M143 -279q100 125 111 236q-49 18 -75.5 63.5t-26.5 95.5t43 90t107.5 40t109.5 -42t45 -125t-56.5 -212t-140.5 -217z" />
<glyph unicode="&#x201c;" horiz-adv-x="983" d="M100 1396q0 83 56.5 212t140.5 217l117 -72q-100 -125 -111 -235q49 -19 76 -64t27 -95t-43.5 -90t-108 -40t-109.5 42t-45 125zM502 1396q0 83 56 212t140 217l117 -72q-100 -125 -110 -235q49 -19 75.5 -64t26.5 -95t-43 -90t-107.5 -40t-109.5 42t-45 125z" />
<glyph unicode="&#x201d;" horiz-adv-x="983" d="M100 930q100 125 111 235q-49 19 -75.5 64t-26.5 95t43 90t107.5 40t109.5 -42t45 -125t-56.5 -212t-140.5 -217zM502 930q100 125 110 235q-49 19 -75.5 64t-26.5 95t43 90t107.5 40t109.5 -42t45 -125t-56.5 -212t-140.5 -217z" />
<glyph unicode="&#x201e;" horiz-adv-x="983" d="M143 -279q100 125 111 236q-49 18 -75.5 63.5t-26.5 95.5t43 90t107.5 40t109.5 -42t45 -125t-56.5 -212t-140.5 -217zM545 -279q100 125 110 236q-49 18 -75.5 63.5t-26.5 95.5t43 90t107.5 40t109.5 -42t45 -125t-56.5 -212t-139.5 -217z" />
<glyph unicode="&#x2022;" horiz-adv-x="716" d="M143 634q0 93 65.5 159.5t159 66.5t160 -66.5t66.5 -159.5t-66.5 -158.5t-160 -65.5t-159 65.5t-65.5 158.5z" />
<glyph unicode="&#x202f;" horiz-adv-x="406" />
<glyph unicode="&#x2039;" horiz-adv-x="737" d="M119 360v111l373 350l110 -100l-246 -305l246 -305l-110 -101z" />
<glyph unicode="&#x203a;" horiz-adv-x="737" d="M135 111l246 305l-246 305l111 100l372 -350v-111l-372 -350z" />
<glyph unicode="&#x205f;" horiz-adv-x="508" />
<glyph unicode="&#x20ac;" horiz-adv-x="1406" d="M14 457l41 239h103v17q0 55 2 82h-146l41 239h158q76 195 238.5 307.5t376.5 112.5t362.5 -123t148.5 -317q0 -148 -88 -252.5t-279.5 -104.5t-281.5 138h-252q-4 -31 -4 -78v-21h279l-41 -239h-180q111 -221 352 -221q211 0 379 176l155 -195q-190 -238 -534 -237 q-250 0 -419 128t-232 349h-179zM524 1034h359q0 -131 96 -131q74 0 74 111q0 82 -63.5 133t-145.5 51q-203 0 -320 -164z" />
<glyph unicode="&#xe000;" horiz-adv-x="1024" d="M0 0v1024h1024v-1024h-1024z" />
</font>
</defs>
</svg>
